<svg width="28" height="30" viewBox="0 0 28 30" fill="none" xmlns="http://www.w3.org/2000/svg">
<g filter="url(#filter0_d_103_21)">
<path d="M16.8 14.1322C17.0667 14.2957 17.0667 14.7043 16.8 14.8678L12.6 17.4425C12.3333 17.6059 12 17.4016 12 17.0747L12 11.9253C12 11.5984 12.3333 11.3941 12.6 11.5575L16.8 14.1322Z" fill="black"/>
<path fill-rule="evenodd" clip-rule="evenodd" d="M10 2C6.68629 2 4 4.68629 4 8V16C4 19.3137 6.68629 22 10 22H18C21.3137 22 24 19.3137 24 16V8C24 4.68629 21.3137 2 18 2H10ZM18 4H16.7663L18.5663 7H21.874C21.4299 5.27477 19.8638 4 18 4ZM22 9H6V16C6 18.2091 7.79086 20 10 20H18C20.2091 20 22 18.2091 22 16V9ZM6.12602 7H10.2338L8.58769 4.25647C7.3805 4.71213 6.45161 5.73497 6.12602 7ZM12.5662 7H16.2339L14.4339 4H10.7662L12.5662 7Z" fill="black"/>
</g>
<defs>
<filter id="filter0_d_103_21" x="-2" y="0" width="32" height="32" filterUnits="userSpaceOnUse" color-interpolation-filters="sRGB">
<feFlood flood-opacity="0" result="BackgroundImageFix"/>
<feColorMatrix in="SourceAlpha" type="matrix" values="0 0 0 0 0 0 0 0 0 0 0 0 0 0 0 0 0 0 127 0" result="hardAlpha"/>
<feOffset dy="4"/>
<feGaussianBlur stdDeviation="2"/>
<feComposite in2="hardAlpha" operator="out"/>
<feColorMatrix type="matrix" values="0 0 0 0 0 0 0 0 0 0 0 0 0 0 0 0 0 0 0.25 0"/>
<feBlend mode="normal" in2="BackgroundImageFix" result="effect1_dropShadow_103_21"/>
<feBlend mode="normal" in="SourceGraphic" in2="effect1_dropShadow_103_21" result="shape"/>
</filter>
</defs>
</svg>
