<svg width="20" height="20" viewBox="0 0 20 20" fill="none" xmlns="http://www.w3.org/2000/svg">
<path fill-rule="evenodd" clip-rule="evenodd" d="M0 6C0 2.68629 2.68629 0 6 0H14C17.3137 0 20 2.68629 20 6V14C20 17.3137 17.3137 20 14 20H6C2.68629 20 0 17.3137 0 14V6ZM2.12602 5H6.80049L5.1805 2.08402C3.68964 2.39443 2.50315 3.53475 2.12602 5ZM11.8005 5H9.0884L7.42174 2H10.1338L11.8005 5ZM14.0884 5H17.874C17.4299 3.27477 15.8638 2 14 2H12.4217L14.0884 5ZM18 7H2V14C2 16.2091 3.79086 18 6 18H14C16.2091 18 18 16.2091 18 14V7ZM12.5878 12.0944C12.782 11.9778 12.782 11.6964 12.5878 11.5799L8.47089 9.10972C8.27093 8.98975 8.01654 9.13378 8.01654 9.36697V14.3073C8.01654 14.5404 8.27093 14.6845 8.47089 14.5645L12.5878 12.0944Z" fill="black"/>
</svg>
