<svg width="24" height="24" viewBox="0 0 24 24" fill="none" xmlns="http://www.w3.org/2000/svg">
<path fill-rule="evenodd" clip-rule="evenodd" d="M7.99999 11C7.99999 8.79086 9.79086 7 12 7C14.2091 7 16 8.79086 16 11C16 13.2091 14.2091 15 12 15C9.79086 15 7.99999 13.2091 7.99999 11ZM12 9C10.8954 9 10 9.89543 10 11C10 12.1046 10.8954 13 12 13C13.1046 13 14 12.1046 14 11C14 9.89543 13.1046 9 12 9Z" fill="black"/>
<path fill-rule="evenodd" clip-rule="evenodd" d="M11.5477 2.27693C11.842 2.18383 12.1579 2.18383 12.4523 2.27693C12.6894 2.35192 12.8612 2.47914 12.9743 2.5749C13.0718 2.65747 13.174 2.75976 13.2596 2.84542L14.4142 4L17.8192 4C18.3552 3.99998 18.8176 3.99997 19.1983 4.03158C19.6002 4.06495 19.9997 4.13867 20.3829 4.33776C20.9308 4.62239 21.3776 5.06915 21.6622 5.61708C21.8613 6.00034 21.935 6.39982 21.9684 6.8017C22 7.18236 22 7.64475 22 8.18075V17.8192C22 18.3552 22 18.8176 21.9684 19.1983C21.935 19.6002 21.8613 19.9997 21.6622 20.3829C21.3776 20.9309 20.9308 21.3776 20.3829 21.6622C19.9997 21.8613 19.6002 21.935 19.1983 21.9684C18.8176 22 18.3552 22 17.8192 22H6.18082C5.64481 22 5.18235 22 4.8017 21.9684C4.39981 21.935 4.00034 21.8613 3.61707 21.6622C3.06914 21.3776 2.62238 20.9309 2.33775 20.3829C2.13866 19.9997 2.06495 19.6002 2.03157 19.1983C1.99996 18.8176 1.99997 18.3552 1.99999 17.8192V8.1808C1.99997 7.64478 1.99996 7.18237 2.03157 6.8017C2.06495 6.39982 2.13866 6.00034 2.33775 5.61708C2.62238 5.06915 3.06914 4.62239 3.61707 4.33776C4.00034 4.13867 4.39981 4.06495 4.8017 4.03158C5.18236 3.99997 5.64477 3.99998 6.18079 4L9.58578 4L10.7403 2.84546C10.8259 2.75979 10.9281 2.65748 11.0257 2.5749C11.1388 2.47914 11.3105 2.35192 11.5477 2.27693ZM12 4.41421L10.4142 6H6.21999C5.63372 6 5.25516 6.0008 4.96722 6.02472C4.69124 6.04764 4.58923 6.08651 4.53902 6.11259C4.35638 6.20746 4.20746 6.35638 4.11258 6.53903C4.0865 6.58924 4.04763 6.69125 4.02471 6.96722C4.0008 7.25517 3.99999 7.63373 3.99999 8.22V17.78C3.99999 18.3663 4.0008 18.7448 4.02471 19.0328C4.04763 19.3088 4.0865 19.4108 4.11258 19.461C4.20746 19.6436 4.35638 19.7925 4.53902 19.8874C4.58923 19.9135 4.69124 19.9524 4.96722 19.9753C5.00704 19.9786 5.0486 19.9815 5.09221 19.9839C5.53632 17.7132 7.53185 16.0001 9.92641 16.0001H14.0736C16.4681 16.0001 18.4637 17.7132 18.9078 19.9839C18.9514 19.9815 18.9929 19.9786 19.0328 19.9753C19.3087 19.9524 19.4108 19.9135 19.461 19.8874C19.6436 19.7925 19.7925 19.6436 19.8874 19.461C19.9135 19.4108 19.9524 19.3088 19.9753 19.0328C19.9992 18.7448 20 18.3663 20 17.78V8.22C20 7.63373 19.9992 7.25517 19.9753 6.96722C19.9524 6.69125 19.9135 6.58924 19.8874 6.53903C19.7925 6.35638 19.6436 6.20746 19.461 6.11259C19.4108 6.08651 19.3087 6.04764 19.0328 6.02472C18.7448 6.0008 18.3663 6 17.78 6H13.5858L12 4.41421ZM16.8776 20C16.4857 18.8238 15.3783 17.9761 14.0736 17.9761H9.92641C8.62164 17.9761 7.51432 18.8238 7.12233 20H16.8776Z" fill="black"/>
</svg>
