<svg width="20" height="20" viewBox="0 0 20 20" fill="none" xmlns="http://www.w3.org/2000/svg">
<path fill-rule="evenodd" clip-rule="evenodd" d="M7.39646 2.67603e-07H12.6035C13.7056 -9.9844e-06 14.5944 -1.83284e-05 15.3138 0.0597244C16.0547 0.121246 16.7049 0.251256 17.3049 0.562933C18.2181 1.03731 18.9627 1.78191 19.4371 2.69513C19.7487 3.29513 19.8788 3.94535 19.9403 4.68616C20 5.40556 20 6.29444 20 7.39649V12.6035C20 13.7056 20 14.5944 19.9403 15.3138C19.8788 16.0547 19.7487 16.7049 19.4371 17.3049C18.9627 18.2181 18.2181 18.9627 17.3049 19.4371C16.7049 19.7487 16.0547 19.8788 15.3138 19.9403C14.5944 20 13.7056 20 12.6035 20H7.39649C6.29444 20 5.40557 20 4.68616 19.9403C3.94535 19.8788 3.29513 19.7487 2.69513 19.4371C1.78191 18.9627 1.03731 18.2181 0.562933 17.3049C0.251256 16.7049 0.121246 16.0547 0.0597244 15.3138C-1.83284e-05 14.5944 -9.9844e-06 13.7056 2.67602e-07 12.6035V7.39646C-9.9844e-06 6.29442 -1.83284e-05 5.40556 0.0597244 4.68616C0.121246 3.94535 0.251256 3.29513 0.562933 2.69513C1.03731 1.78191 1.78191 1.03731 2.69513 0.562933C3.29513 0.251256 3.94535 0.121246 4.68616 0.0597244C5.40556 -1.83284e-05 6.29442 -9.9844e-06 7.39646 2.67603e-07ZM4.85168 2.05286C4.23678 2.10393 3.88403 2.19909 3.61708 2.33776C3.06915 2.62239 2.62239 3.06915 2.33776 3.61708C2.19909 3.88403 2.10393 4.23678 2.05286 4.85168C2.0008 5.47856 2 6.28423 2 7.44V12.56C2 13.7158 2.0008 14.5214 2.05286 15.1483C2.10393 15.7632 2.19909 16.116 2.33776 16.3829C2.62239 16.9309 3.06915 17.3776 3.61708 17.6622C3.88403 17.8009 4.23678 17.8961 4.85168 17.9471C5.47856 17.9992 6.28423 18 7.44 18H12.56C13.7158 18 14.5214 17.9992 15.1483 17.9471C15.7632 17.8961 16.116 17.8009 16.3829 17.6622C16.9309 17.3776 17.3776 16.9309 17.6622 16.3829C17.8009 16.116 17.8961 15.7632 17.9471 15.1483C17.9992 14.5214 18 13.7158 18 12.56V7.44C18 6.28423 17.9992 5.47856 17.9471 4.85168C17.8961 4.23678 17.8009 3.88403 17.6622 3.61708C17.3776 3.06915 16.9309 2.62239 16.3829 2.33776C16.116 2.19909 15.7632 2.10393 15.1483 2.05286C14.5214 2.0008 13.7158 2 12.56 2H7.44C6.28423 2 5.47856 2.0008 4.85168 2.05286Z" fill="black"/>
<path fill-rule="evenodd" clip-rule="evenodd" d="M15.0002 9C15.2654 9 15.5197 9.10537 15.7073 9.29291L19.9142 13.5L18.5 14.9142L15.0001 11.4142L9.7071 16.7071C9.51139 16.9028 9.24333 17.0087 8.96672 16.9994C8.6901 16.9902 8.42968 16.8668 8.24742 16.6585L5.45846 13.4711L2.00719 16.9929C1.62063 17.3873 0.9875 17.3937 0.593047 17.0072C0.198595 16.6206 0.192194 15.9875 0.57875 15.593L4.78578 11.3001C4.98073 11.1011 5.24981 10.9925 5.52823 11.0004C5.80664 11.0083 6.06917 11.1319 6.25258 11.3415L9.04872 14.5371L14.2931 9.29288C14.4806 9.10535 14.735 9 15.0002 9Z" fill="black"/>
<path d="M7 5.5C7 6.32843 6.32843 7 5.5 7C4.67157 7 4 6.32843 4 5.5C4 4.67157 4.67157 4 5.5 4C6.32843 4 7 4.67157 7 5.5Z" fill="black"/>
</svg>
