<svg width="20" height="20" viewBox="0 0 20 20" fill="none" xmlns="http://www.w3.org/2000/svg">
<path d="M12.8 12.1322C13.0667 12.2957 13.0667 12.7043 12.8 12.8678L8.6 15.4425C8.33333 15.6059 8 15.4016 8 15.0747L8 9.92534C8 9.5984 8.33333 9.39406 8.6 9.55753L12.8 12.1322Z" fill="black"/>
<path fill-rule="evenodd" clip-rule="evenodd" d="M6 0C2.68629 0 0 2.68629 0 6V14C0 17.3137 2.68629 20 6 20H14C17.3137 20 20 17.3137 20 14V6C20 2.68629 17.3137 0 14 0H6ZM14 2H12.7663L14.5663 5H17.874C17.4299 3.27477 15.8638 2 14 2ZM18 7H2V14C2 16.2091 3.79086 18 6 18H14C16.2091 18 18 16.2091 18 14V7ZM2.12602 5H6.23381L4.58769 2.25647C3.3805 2.71213 2.45161 3.73497 2.12602 5ZM8.56619 5H12.2339L10.4339 2H6.76619L8.56619 5Z" fill="black"/>
</svg>
