<svg width="20" height="20" viewBox="0 0 20 20" fill="none" xmlns="http://www.w3.org/2000/svg">
<path fill-rule="evenodd" clip-rule="evenodd" d="M6 9C6 6.79086 7.79086 5 10 5C12.2091 5 14 6.79086 14 9C14 11.2091 12.2091 13 10 13C7.79086 13 6 11.2091 6 9ZM10 7C8.89543 7 8 7.89543 8 9C8 10.1046 8.89543 11 10 11C11.1046 11 12 10.1046 12 9C12 7.89543 11.1046 7 10 7Z" fill="black"/>
<path fill-rule="evenodd" clip-rule="evenodd" d="M9.54769 0.276923C9.84204 0.183832 10.158 0.183832 10.4523 0.276923C10.6894 0.35192 10.8612 0.479142 10.9743 0.574901C11.0718 0.657463 11.174 0.759753 11.2596 0.845418L12.4142 2L15.8192 2C16.3552 1.99998 16.8176 1.99996 17.1983 2.03158C17.6002 2.06495 17.9997 2.13867 18.3829 2.33776C18.9309 2.62238 19.3776 3.06915 19.6622 3.61707C19.8613 4.00034 19.935 4.39981 19.9684 4.8017C20 5.18235 20 5.64475 20 6.18075V15.8192C20 16.3552 20 16.8176 19.9684 17.1983C19.935 17.6002 19.8613 17.9997 19.6622 18.3829C19.3776 18.9309 18.9309 19.3776 18.3829 19.6622C17.9997 19.8613 17.6002 19.935 17.1983 19.9684C16.8176 20 16.3552 20 15.8192 20H4.18082C3.64482 20 3.18235 20 2.8017 19.9684C2.39981 19.935 2.00034 19.8613 1.61707 19.6622C1.06915 19.3776 0.622384 18.9309 0.337758 18.3829C0.138667 17.9997 0.06495 17.6002 0.0315752 17.1983C-3.73758e-05 16.8176 -2.14033e-05 16.3552 -2.92583e-06 15.8192V6.18079C-2.14033e-05 5.64477 -3.73758e-05 5.18236 0.0315752 4.8017C0.06495 4.39981 0.138667 4.00034 0.337758 3.61707C0.622384 3.06915 1.06915 2.62238 1.61707 2.33776C2.00034 2.13867 2.39981 2.06495 2.8017 2.03158C3.18236 1.99996 3.64477 1.99998 4.18079 2L7.58578 2L8.74031 0.845461C8.82592 0.759787 8.92815 0.657476 9.02568 0.574901C9.13879 0.479142 9.31055 0.35192 9.54769 0.276923ZM10 2.41421L8.41421 4H4.22C3.63372 4 3.25516 4.0008 2.96722 4.02471C2.69125 4.04763 2.58923 4.0865 2.53902 4.11258C2.35638 4.20746 2.20746 4.35638 2.11258 4.53902C2.0865 4.58923 2.04763 4.69125 2.02471 4.96722C2.0008 5.25516 2 5.63372 2 6.22V15.78C2 16.3663 2.0008 16.7448 2.02471 17.0328C2.04763 17.3087 2.0865 17.4108 2.11258 17.461C2.20746 17.6436 2.35638 17.7925 2.53902 17.8874C2.58923 17.9135 2.69125 17.9524 2.96722 17.9753C3.00705 17.9786 3.04861 17.9815 3.09221 17.9839C3.53632 15.7132 5.53185 14.0001 7.92641 14.0001H12.0736C14.4681 14.0001 16.4637 15.7132 16.9078 17.9839C16.9514 17.9815 16.9929 17.9786 17.0328 17.9753C17.3088 17.9524 17.4108 17.9135 17.461 17.8874C17.6436 17.7925 17.7925 17.6436 17.8874 17.461C17.9135 17.4108 17.9524 17.3087 17.9753 17.0328C17.9992 16.7448 18 16.3663 18 15.78V6.22C18 5.63372 17.9992 5.25516 17.9753 4.96722C17.9524 4.69125 17.9135 4.58923 17.8874 4.53902C17.7925 4.35638 17.6436 4.20746 17.461 4.11258C17.4108 4.0865 17.3088 4.04763 17.0328 4.02471C16.7448 4.0008 16.3663 4 15.78 4H11.5858L10 2.41421ZM14.8777 18C14.4857 16.8238 13.3783 15.9761 12.0736 15.9761H7.92641C6.62164 15.9761 5.51432 16.8238 5.12234 18H14.8777Z" fill="black"/>
</svg>
