<svg width="18" height="18" viewBox="0 0 18 18" fill="none" xmlns="http://www.w3.org/2000/svg">
<path fill-rule="evenodd" clip-rule="evenodd" d="M2 12.75V16H5.25V12.75H2ZM0 12.75V11.75V6.25V5.25V1C0 0.447716 0.447715 0 1 0H5.25H6.25H11.75H12.75H17C17.5523 0 18 0.447715 18 1V5.25V6.25V11.75V12.75V17C18 17.5523 17.5523 18 17 18H12.75H11.75H6.25H5.25H1C0.447716 18 0 17.5523 0 17V12.75ZM16 10.75V7.25H12.75V10.75H16ZM12.75 12.75H16V16H12.75V12.75ZM10.75 10.75V7.25H7.25V10.75H10.75ZM7.25 12.75H10.75V16H7.25V12.75ZM5.25 10.75V7.25H2V10.75H5.25ZM2 5.25H5.25V2H2V5.25ZM7.25 5.25H10.75V2H7.25V5.25ZM12.75 5.25H16V2H12.75V5.25Z" fill="black"/>
</svg>
