<svg width="22" height="22" viewBox="0 0 22 22" fill="none" xmlns="http://www.w3.org/2000/svg">
<path fill-rule="evenodd" clip-rule="evenodd" d="M11 2C6.02944 2 2 6.02944 2 11C2 13.3862 2.92862 15.5555 4.44419 17.1662C5.10909 15.8795 6.45183 15 8 15H14C15.5482 15 16.8909 15.8795 17.5558 17.1662C19.0714 15.5555 20 13.3862 20 11C20 6.02944 15.9706 2 11 2ZM15.9426 18.5225C15.7286 17.6485 14.94 17 14 17H8C7.05999 17 6.27144 17.6485 6.05735 18.5225C7.47598 19.4565 9.17452 20 11 20C12.8255 20 14.524 19.4565 15.9426 18.5225ZM0 11C0 4.92487 4.92487 0 11 0C17.0751 0 22 4.92487 22 11C22 17.0751 17.0751 22 11 22C4.92487 22 0 17.0751 0 11ZM11 6C9.34315 6 8 7.34315 8 9C8 10.6569 9.34315 12 11 12C12.6569 12 14 10.6569 14 9C14 7.34315 12.6569 6 11 6ZM6 9C6 6.23858 8.23858 4 11 4C13.7614 4 16 6.23858 16 9C16 11.7614 13.7614 14 11 14C8.23858 14 6 11.7614 6 9Z" fill="black"/>
</svg>
