<svg width="24" height="24" viewBox="0 0 24 24" fill="none" xmlns="http://www.w3.org/2000/svg">
<path fill-rule="evenodd" clip-rule="evenodd" d="M5 15.75V19H8.25V15.75H5ZM3 15.75V14.75V9.25V8.25V4C3 3.44772 3.44772 3 4 3H8.25H9.25H14.75H15.75H20C20.5523 3 21 3.44772 21 4V8.25V9.25V14.75V15.75V20C21 20.5523 20.5523 21 20 21H15.75H14.75H9.25H8.25H4C3.44772 21 3 20.5523 3 20V15.75ZM19 13.75V10.25H15.75V13.75H19ZM15.75 15.75H19V19H15.75V15.75ZM13.75 13.75V10.25H10.25V13.75H13.75ZM10.25 15.75H13.75V19H10.25V15.75ZM8.25 13.75V10.25H5V13.75H8.25ZM5 8.25H8.25V5H5V8.25ZM10.25 8.25H13.75V5H10.25V8.25ZM15.75 8.25H19V5H15.75V8.25Z" fill="black"/>
</svg>
